/* XPM */
static char * C:\editing\projects\RadJav\vm\res\icons\xrj_xpm[] = {
"64 64 354 2",
"  	c None",
". 	c #393535",
"+ 	c #383536",
"@ 	c #393637",
"# 	c #393737",
"$ 	c #363535",
"% 	c #363333",
"& 	c #363436",
"* 	c #383436",
"= 	c #373436",
"- 	c #383537",
"; 	c #3D393A",
"> 	c #3A3738",
", 	c #373435",
"' 	c #3C3839",
") 	c #3A3535",
"! 	c #383333",
"~ 	c #3B3839",
"{ 	c #373636",
"] 	c #373535",
"^ 	c #3D393B",
"/ 	c #363334",
"( 	c #373536",
"_ 	c #383435",
": 	c #3C393A",
"< 	c #3B3739",
"[ 	c #383535",
"} 	c #383334",
"| 	c #363435",
"1 	c #353233",
"2 	c #353435",
"3 	c #353535",
"4 	c #383434",
"5 	c #363336",
"6 	c #363335",
"7 	c #3A3636",
"8 	c #3A3638",
"9 	c #393437",
"0 	c #353133",
"a 	c #373434",
"b 	c #373334",
"c 	c #373131",
"d 	c #393334",
"e 	c #383233",
"f 	c #3A2C2A",
"g 	c #3B3738",
"h 	c #392E2D",
"i 	c #373132",
"j 	c #31444A",
"k 	c #3C383A",
"l 	c #393636",
"m 	c #373233",
"n 	c #3A2D2B",
"o 	c #323F43",
"p 	c #2F4B52",
"q 	c #363536",
"r 	c #383335",
"s 	c #3A3637",
"t 	c #392E2E",
"u 	c #324045",
"v 	c #304B53",
"w 	c #2E4B54",
"x 	c #363235",
"y 	c #314249",
"z 	c #373336",
"A 	c #38302F",
"B 	c #393435",
"C 	c #363032",
"D 	c #383131",
"E 	c #3A2C2B",
"F 	c #383030",
"G 	c #3B2B29",
"H 	c #392F2F",
"I 	c #343C40",
"J 	c #2F4A52",
"K 	c #2B5460",
"L 	c #295A67",
"M 	c #295966",
"N 	c #2B535E",
"O 	c #2F4951",
"P 	c #343C3F",
"Q 	c #373133",
"R 	c #393030",
"S 	c #333E42",
"T 	c #256373",
"U 	c #19839D",
"V 	c #1295B6",
"W 	c #0F9EC0",
"X 	c #0EA0C4",
"Y 	c #0EA1C4",
"Z 	c #0EA0C3",
"` 	c #0F9DC0",
" .	c #119ABC",
"..	c #1F7489",
"+.	c #2B2728",
"@.	c #2C292A",
"#.	c #343132",
"$.	c #373236",
"%.	c #353B3D",
"&.	c #207084",
"*.	c #1199B9",
"=.	c #0DA3C8",
"-.	c #0F9FC2",
";.	c #109BBD",
">.	c #1199BB",
",.	c #1199BA",
"'.	c #0DA5CA",
").	c #246778",
"!.	c #3A2B29",
"~.	c #353334",
"{.	c #898889",
"].	c #646364",
"^.	c #282526",
"/.	c #2D2A2B",
"(.	c #373333",
"_.	c #343333",
":.	c #383232",
"<.	c #2A5864",
"[.	c #1296B6",
"}.	c #0DA3C7",
"|.	c #119ABB",
"1.	c #324147",
"2.	c #2D292A",
"3.	c #5C5A5B",
"4.	c #E6E7E9",
"5.	c #DEDFE1",
"6.	c #C2C2C4",
"7.	c #919092",
"8.	c #5C595B",
"9.	c #292526",
"0.	c #2E2B2C",
"a.	c #373235",
"b.	c #3A2D2D",
"c.	c #216E81",
"d.	c #109DBF",
"e.	c #0F9FC3",
"f.	c #1A819B",
"g.	c #969596",
"h.	c #E0E1E3",
"i.	c #D2D3D5",
"j.	c #D8D9DB",
"k.	c #E0E2E4",
"l.	c #DBDCDE",
"m.	c #BEBEC0",
"n.	c #8B8B8C",
"o.	c #575556",
"p.	c #3A2E2D",
"q.	c #1E778D",
"r.	c #0CA4C9",
"s.	c #0EA2C7",
"t.	c #275E6C",
"u.	c #333132",
"v.	c #C7C8C9",
"w.	c #D7D8DA",
"x.	c #D9DADC",
"y.	c #E5E6E8",
"z.	c #CBCCCE",
"A.	c #3B383A",
"B.	c #207185",
"C.	c #109ABC",
"D.	c #1198B9",
"E.	c #393130",
"F.	c #2B2829",
"G.	c #676566",
"H.	c #DEE0E2",
"I.	c #9E9E9F",
"J.	c #109BBC",
"K.	c #109CBE",
"L.	c #0EA2C5",
"M.	c #1B7D96",
"N.	c #3A2D2C",
"O.	c #2A2728",
"P.	c #9D9D9E",
"Q.	c #DFE0E2",
"R.	c #6A6869",
"S.	c #353A3D",
"T.	c #0EA1C5",
"U.	c #1298B9",
"V.	c #1491B0",
"W.	c #295965",
"X.	c #333032",
"Y.	c #3E3B3C",
"Z.	c #C9C9CB",
"`.	c #D6D7D9",
" +	c #CACBCD",
".+	c #403D3E",
"++	c #333031",
"@+	c #3A2A28",
"#+	c #226D80",
"$+	c #1886A1",
"%+	c #333F43",
"&+	c #35383A",
"*+	c #343D41",
"=+	c #324247",
"-+	c #9E9EA0",
";+	c #2A2727",
">+	c #353A3E",
",+	c #109CBD",
"'+	c #39302F",
")+	c #2A2627",
"!+	c #9B9A9C",
"~+	c #676567",
"{+	c #2B2828",
"]+	c #27606E",
"^+	c #109BBE",
"/+	c #109ABB",
"(+	c #2F4952",
"_+	c #3C2826",
":+	c #3B393A",
"<+	c #C6C7C9",
"[+	c #1985A0",
"}+	c #0EA2C6",
"|+	c #285C6A",
"1+	c #3B2825",
"2+	c #636162",
"3+	c #DDDEE0",
"4+	c #959496",
"5+	c #392F2E",
"6+	c #31454B",
"7+	c #0F9EC1",
"8+	c #1787A3",
"9+	c #292627",
"0+	c #DCDDDF",
"a+	c #5D5B5C",
"b+	c #3B2B28",
"c+	c #295A68",
"d+	c #C2C3C5",
"e+	c #D7D9DB",
"f+	c #353B3E",
"g+	c #5D5B5D",
"h+	c #8B8A8C",
"i+	c #30474E",
"j+	c #1D7990",
"k+	c #D3D4D6",
"l+	c #555254",
"m+	c #3B2A28",
"n+	c #236A7C",
"o+	c #0DA2C6",
"p+	c #2A5762",
"q+	c #C1C1C3",
"r+	c #DADBDD",
"s+	c #B8B8BA",
"t+	c #322F30",
"u+	c #168CA9",
"v+	c #1295B4",
"w+	c #646263",
"x+	c #E1E3E5",
"y+	c #838283",
"z+	c #2D4D56",
"A+	c #1D798F",
"B+	c #B1B1B3",
"C+	c #D3D5D7",
"D+	c #D5D6D8",
"E+	c #4E4C4D",
"F+	c #302D2D",
"G+	c #207287",
"H+	c #2A5662",
"I+	c #252122",
"J+	c #7B7A7B",
"K+	c #DFE1E3",
"L+	c #DCDEE0",
"M+	c #ACADAE",
"N+	c #36383A",
"O+	c #1492B1",
"P+	c #1394B4",
"Q+	c #383132",
"R+	c #242122",
"S+	c #D9DBDD",
"T+	c #6C6B6C",
"U+	c #2B5560",
"V+	c #2C2829",
"W+	c #8A898B",
"X+	c #D2D2D4",
"Y+	c #343434",
"Z+	c #2A5661",
"`+	c #727172",
" @	c #666566",
".@	c #636163",
"+@	c #969597",
"@@	c #C8C9CB",
"#@	c #E0E2E3",
"$@	c #D4D5D7",
"%@	c #E2E4E6",
"&@	c #777577",
"*@	c #35393C",
"=@	c #1394B3",
"-@	c #383231",
";@	c #615F60",
">@	c #E7E8EA",
",@	c #D6D8DA",
"'@	c #D2D2D5",
")@	c #BABABC",
"!@	c #393537",
"~@	c #2A5561",
"{@	c #1E768D",
"]@	c #3A2B2A",
"^@	c #999899",
"/@	c #DBDCDF",
"(@	c #585657",
"_@	c #2C2929",
":@	c #1D7A91",
"<@	c #2B535F",
"[@	c #C6C6C9",
"}@	c #E3E4E6",
"|@	c #7D7B7D",
"1@	c #1D788E",
"2@	c #0F9DBF",
"3@	c #363739",
"4@	c #DEDFE2",
"5@	c #D1D2D4",
"6@	c #8A898A",
"7@	c #256374",
"8@	c #0DA2C7",
"9@	c #207286",
"0@	c #9D9D9F",
"a@	c #DDDFE1",
"b@	c #7A797A",
"c@	c #30454C",
"d@	c #246879",
"e@	c #168AA7",
"f@	c #2E4B53",
"g@	c #3F3C3D",
"h@	c #B2B2B4",
"i@	c #545253",
"j@	c #353235",
"k@	c #30474F",
"l@	c #787678",
"m@	c #EBECEE",
"n@	c #D4D6D8",
"o@	c #E1E2E4",
"p@	c #ADADAF",
"q@	c #686668",
"r@	c #2F2C2D",
"s@	c #626061",
"t@	c #C5C6C8",
"u@	c #D0D1D3",
"v@	c #CACACD",
"w@	c #BBBCBD",
"x@	c #A4A3A5",
"y@	c #7E7C7E",
"z@	c #4F4C4E",
"A@	c #2E2A2B",
"B@	c #383636",
"C@	c #3D3A3B",
"D@	c #494748",
"E@	c #4D4B4C",
"F@	c #4A4849",
"G@	c #423F40",
"H@	c #302D2E",
"I@	c #312E2F",
"J@	c #373335",
"K@	c #383337",
"L@	c #373637",
"M@	c #373537",
"                                                                                                                                ",
"          . + @ # + $ % & . * = +                                                                                               ",
"      - ; > + , ' > ) ! @ ~ ' ~ ' ' > + {                                                                                       ",
"    ] ^ / ( ; + = _ : @ , , , , , , , + < ~ {       + [ % } | 1 | / 2 ] 3                                                       ",
"    ; , = ' | + : + , , , , , , , , , , / , 4 } @ ~ ~ > @ + + + + + @ > ~ ~ @ ] 5                                               ",
"  , > , ' 6 + ~ , , , , , , , , , , / , + > ~ @ , , , , , , , , , , , , , , , @ ~ ~ 7                                           ",
"  + * ; , * > , , , , , , , , , / , * ' 8 , , , , , , , , , , , , , , , , , , , , , @ : 9                                       ",
"  @ 0 @ a ~ , , , , , , , , b c d ~ @ , , , , , , , , , , , , , , , , , , , , , , , , , @ : #                                   ",
"  - ' , : , , , , , , , e f e ( ~ , , , , , , , , , , , , , , , , , , , , , , , , , , , , , g +                                 ",
"  = > | + , , , , , ( h i j k + , , , , , , , , , , , , , , , , , , , , , , , , , , , , , , , + : l                             ",
"  m + : , , , , , ( n o p : , , , , , , , , , , , , , , , , , , , , , , , , , , , , , , , , , , , : q                           ",
"  r / s , , , , , t u v : , , , , , , , , , , , , , , , , , , , , , , , , , , , , , , , , , , , , , : .                         ",
"  , + , , , , , e m w : , , , , , , , , , , , , , , , , , , , , , , , , , , , , , , , , , , , , , , , ' q                       ",
"  x ~ , , , , , f y : , , , , , , , , , , , , , , , , , , , , , , , , , , , , , , , , , , , , , , , , , : =                     ",
"  z ' , , , , b i : , , , , , , , , , , , , , , , , , , , , , , , , , , , , , , , , , , , , , , , , , , , :                     ",
"  , ~ , , , , A | @ , , , , , , , , , , , , , , , , , , , , , , , , , , , , , , , , , , , , , , , , , , , + ]                   ",
"  B ~ , , , , C ~ , , , , , , , , , , , , , , , , , , , , a D h E f f E t D b , , , , , , , , , , , , , , , ~ ]                 ",
"    ' , , , b ~ , , , , , , , , , , , , , , , , , , , F G H I J K L M N O P } , , , , , , , , , , , , , , , , :                 ",
"    ~ , , , Q > , , , , , , , , , , , , , , , , = R G S T U V W X Y Y Z `  ...H , / +.@.#., , , , , , , , , , @ $.              ",
"    + * , , ' , , , , , , , , , , , , , , , , , G %.&.*.=.-.;.>.,.,.,.,.,.'.).!.~.@ {.].+ ^./.1 , , , , , , , , :               ",
"    (.> , _.> , , , , , , , , , , , , , , , :.!.<.[.}.;.,.,.,.,.,.,.,.,. .|.1.R 2.3.4.5.6.7.8.~.9.0., , , , , , @ a.            ",
"      : a > , , , , , , , , , , , , , , , D b.c.}.d.*.,.,.,.,.,.,.,.,.,.e.f.h , 9.g.h.i.j.k.l.m.n.o.( / , , , , , >             ",
"      & | ~ , , , , , , , , , , , , , , :.p.q.r.|.,.,.,.,.,.,.,.,.,.,.,.s.t.!.u.: v.w.i.i.i.i.x.y.z.A.#., , , , , ~ +           ",
"        & @ , , , , , , , , , , , , , , f B.r.,.,.,.,.,.,.,.,.,.,.,.,.C.D.S E.F.G.5.i.i.i.i.i.i.H.I.+., , , , , , @ |           ",
"        @ , , , , , , , , , , , , , = !.L =.>.,.,.,.,.,.,.,.,.,.J.K.;.L.M.N., O.P.Q.i.i.i.i.i.i.Q.R.F., , , , , , , @           ",
"        ~ , , , , , , , , , , , , , F S.[.d.,.,.,.,.,.,.,.,.-.T.U.V.V T.W.f X.Y.Z.`.i.i.i.i.i.`. +.+++, , , , , , , ~           ",
"      a ~ , , , , , , , , , , , , , @+#+}.*.,.,.,.,.,.*.K.L.$+M %+&+*+=+( b F.G.H.i.i.i.i.i.i.H.-+;+, , , , , , , , ~ a         ",
"      & > , , , , , , , , , , , , D >+[.,+,.,.,.,.,.*.` >.L h G F :.D '+b ( )+!+Q.i.i.i.i.i.i.H.~+{+, , , , , , , , s (.        ",
"      b @ , , , , , , , , , , , , G ]+}.,.,.,.,.,.,.^+/+(+_+b , , , , , , #.:+<+w.i.i.i.i.i.w.<+~ #., , , , , , , , + 3         ",
"      / + , , , , , , , , , , , b '+[+-.,.,.,.,.,.,.}+|+1+, , , , , , , , @.2+3+i.i.i.i.i.i.h.4+9., , , , , , , , , + 1         ",
"      * + , , , , , , , , , , , 5+6+d.|.,.,.,.,.,.7+8+5+b , , , , , , , , 9+4+h.i.i.i.i.i.i.0+a+/., , , , , , , , , + +         ",
"      , + , , , , , , , , , , , b+).s.,.,.,.,.,.,.}+c+b+, , , , , , , , #.@ d+e+i.i.i.i.i.x.m.1 1 , , , , , , , , , , @         ",
"      , + , , , , , , , , , , b F 8+7+,.,.,.,.,.;.[.f+D , , , , , , , , 2.g+0+i.i.i.i.i.i.k.h+^., , , , , , , , , , , @         ",
"      , + , , , , , , , , , , t i+d.|.,.,.,.,.,.Y j+f , , , , , , , , , 9.7.h.i.i.i.i.i.k+x.l+0., , , , , , , , , , + +         ",
"      } + , , , , , , , , , , m+n+o+,.,.,.,.,.,.L.p+f , , , , , , , , 1 / q+j.i.i.i.i.i.r+s+t+/ , , , , , , , , , , + ,         ",
"      & @ , , , , , , , , , (.! u+` ,.,.,.,.,.;.v+S.D , , , , , , , , O.w+5.i.i.i.i.i.i.x+y+^., , , , , , , , , , , + |         ",
"      & > , , , , , , , , , N.z+Z ,.,.,.,.,.,.T.A+f , , , , , , , , 1 /.B+0+i.i.i.i.i.C+D+E+F+, , , , , , , , , , , > (.        ",
"      (.~ , , , , , , , , , !.G+}+,.,.,.,.,.,.L.H+f , , , , , , , , I+J+K+i.i.i.i.i.i.L+M+/., , , , , , , , , , , , ~ ,         ",
"        ~ , , , , , , , , :.N+O+K.,.,.,.,.,.,+P+S.Q+, , , , , , t+R+R.S+D+i.i.i.i.i.i.h.T+O., , , , , , , , , , , , ~           ",
"        + + , , , , , , , E U+T.,.,.,.,.,.,.T.A+f ( 1 +.V+@.O.^.: W+l.`.X+i.i.i.i.i.S+q+/ #., , , , , , , , , , , , @           ",
"        Y+> , , , , , , , f A+Y ,.,.,.,.,.,.T.Z+E 1 ~ `+ @.@`++@@@#@$@i.i.i.i.i.i.i.%@&@9., , , , , , , , , , , , @ a.          ",
"        Y+' , , , , , , D *@P+;.,.,.,.,.,.,+=@*@-@@.;@>@3+0+Q.Q.,@'@i.i.i.i.i.i.X+0+)@++1 , , , , , , , , , , , , ~ *           ",
"          !@+ , , , , , E ~@T.,.,.,.,.,.,.T.{@]@, 9+^@K+i.i.i.i.i.i.i.i.i.i.i.i.D+/@(@_@( , , , , , , , , , , , , s             ",
"          = > , , , , , f :@}.,.,.,.,.,.,.T.<@E #.:+[@w.i.i.i.i.i.i.i.i.i.i.i.$@}@|@^., , , , , , , , , , , , , > %             ",
"            ~ , , , , b :.1@2@}.7+|.,.,.K.V.3@:.F.~+4@i.i.i.i.i.i.i.i.i.i.5@`.}@6@O./ , , , , , , , , , , , , , '               ",
"            a > , , , , a F =+7@$+d.o+W 8@9@!., O.0@Q.i.i.i.i.i.i.i.i.i.i.a@r+b@;+1 , , , , , , , , , , , , , > ,               ",
"              > , , , , , , H m+R c@d@e@Y f@h ++g@ +`.i.i.i.i.i.i.i.$@3+h.h@i@^./ , , , , , , , , , , , , , , ~                 ",
"              j@: , , , , , , , b 5+m+b k@q b )+l@m@w.n@$@$@`.x.a@o@`.p@q@r@/.+ , , , , , , , , , , , , , , ' &                 ",
"                $ @ , , , , , , , , , (.5+b , r@s@p@t@u@k+5@v@w@x@y@z@A@+./ , , , , , , , , , , , , , , , @ B@                  ",
"                  > + , , , , , , , , , , , , + r@@.C@D@E@F@G@/ V+9+H@, , , , , , , , , , , , , , , , , + ~                     ",
"                    : , , , , , , , , , , , , , , , #.I@H@I@++1 , , , , , , , , , , , , , , , , , , , , : J@                    ",
"                    4 : , , , , , , , , , , , , , , , , , , , , , , , , , , , , , , , , , , , , , , , : j@                      ",
"                      % : , , , , , , , , , , , , , , , , , , , , , , , , , , , , , , , , , , , , , : 9                         ",
"                        K@: + , , , , , , , , , , , , , , , , , , , , , , , , , , , , , , , , , + : 5                           ",
"                            > s , , , , , , , , , , , , , , , , , , , , , , , , , , , , , , , @ > ]                             ",
"                              s : + , , , , , , , , , , , , , , , , , , , , , , , , , , , , ' B                                 ",
"                                L@@ < , , , , , , , , , , , , , , , , , , , , , , , , , > > -                                   ",
"                                    [ > ~ + , , , , , , , , , , , , , , , , , , , + ~ < M@                                      ",
"                                        q + ' > + , , , , , , , , , , , , , + > ' + (                                           ",
"                                              ] , > ~ ~ > @ @ @ @ @ > ~ ~ > | q                                                 ",
"                                                      - = ! (.0 % 4 * = J@                                                      ",
"                                                                                                                                ",
"                                                                                                                                ",
"                                                                                                                                "};
